<?xml version="1.0" encoding="UTF-8" standalone="no"?>
<!-- Created with Inkscape (http://www.inkscape.org/) -->

<svg
   xmlns:dc="http://purl.org/dc/elements/1.1/"
   xmlns:cc="http://creativecommons.org/ns#"
   xmlns:rdf="http://www.w3.org/1999/02/22-rdf-syntax-ns#"
   xmlns:svg="http://www.w3.org/2000/svg"
   xmlns="http://www.w3.org/2000/svg"
   xmlns:sodipodi="http://sodipodi.sourceforge.net/DTD/sodipodi-0.dtd"
   xmlns:inkscape="http://www.inkscape.org/namespaces/inkscape"
   width="163.25191mm"
   height="231.04808mm"
   viewBox="0 0 100 100"
   version="1.1"
   id="svg8"
   inkscape:version="0.92.0 r15299"
   sodipodi:docname="cav_logo_yellow.svg">
  <defs
     id="defs2" />
  <sodipodi:namedview
     id="base"
     pagecolor="#ffffff"
     bordercolor="#666666"
     borderopacity="1.0"
     inkscape:pageopacity="0.0"
     inkscape:pageshadow="2"
     inkscape:zoom="0.7"
     inkscape:cx="158.04589"
     inkscape:cy="577.76398"
     inkscape:document-units="mm"
     inkscape:current-layer="g5021"
     showgrid="false"
     inkscape:window-width="2560"
     inkscape:window-height="1377"
     inkscape:window-x="-8"
     inkscape:window-y="-8"
     inkscape:window-maximized="1"
     fit-margin-top="0"
     fit-margin-left="0"
     fit-margin-right="0"
     fit-margin-bottom="0"
     viewbox-height="100" />
  <metadata
     id="metadata5">
    <rdf:RDF>
      <cc:Work
         rdf:about="">
        <dc:format>image/svg+xml</dc:format>
        <dc:type
           rdf:resource="http://purl.org/dc/dcmitype/StillImage" />
        <dc:title></dc:title>
      </cc:Work>
    </rdf:RDF>
  </metadata>
  <g
     inkscape:label="Layer 1"
     inkscape:groupmode="layer"
     id="layer1"
     transform="translate(-30.472205,-36.848838)">
    <g
       id="g5021">
      <path
         style="fill:#fac700;stroke-width:0.07288747;fill-opacity:1"
         d="m 78.974505,156.92585 c -3.649059,-0.4593 -7.126376,-2.92288 -11.457896,-8.11761 C 60.477891,140.36684 52.371951,125.82883 45.439371,109.21273 40.948198,98.4482 37.003156,86.76046 34.558857,76.977644 32.846403,70.123888 31.796452,62.981421 31.258768,54.528299 c -0.174922,-2.75 -0.175758,-8.995516 -0.0015,-11.115341 0.313216,-3.810043 0.684549,-5.89723 1.445882,-8.126953 2.819492,-8.257534 9.391985,-13.029095 22.234276,-16.141856 5.126223,-1.242514 8.306497,-1.662443 15.035472,-1.985314 2.565251,-0.123087 16.729339,-0.122474 19.861832,8.5e-4 9.114646,0.358864 13.70438,0.942678 18.73208,2.382726 3.02479,0.866363 5.86167,2.018234 9.69724,3.937416 4.85348,2.428502 5.76481,3.556846 7.54656,5.834257 1.59385,2.037243 3.36959,8.441266 3.56573,10.557866 0.66578,5.265815 0.81783,12.676367 0.18101,18.337159 -0.86155,7.658652 -0.8272,8.46894 -2.19099,14.384993 -6.60404,28.647958 -20.83837,60.280298 -34.099049,75.776808 -1.056934,1.23515 -3.206869,3.43295 -4.30723,4.40315 -2.571865,2.26763 -4.893403,3.55923 -7.217215,4.01534 -0.604419,0.11864 -2.261131,0.20029 -2.768368,0.13644 z m 2.150181,-2.81005 c 0.836715,-0.18241 2.498356,-0.96612 3.555469,-1.67692 2.118845,-1.42471 5.135229,-4.52258 8.154265,-8.37458 2.869951,-3.66177 6.128987,-8.5592 8.82348,-13.25926 1.48847,-2.59636 4.35786,-7.89839 4.35786,-8.05238 0,-0.1661 -17.218851,-17.38864 -26.531859,-26.537542 C 68.695486,85.616803 35.115393,52.783987 33.834253,51.581338 c -0.146549,-0.137568 -0.285539,-0.23104 -0.308862,-0.207715 -0.109461,0.10946 0.891204,8.537486 1.352446,11.390962 4.890044,30.251996 22.863834,72.145805 37.059072,86.378295 1.671187,1.67558 2.972779,2.73888 4.460703,3.64405 2.213009,1.34629 3.276195,1.64517 4.727074,1.32887 z M 116.82309,96.566155 c 1.21378,-2.372446 3.72257,-9.797263 5.4742,-16.201025 2.63214,-9.622806 4.12134,-18.126706 4.72238,-26.966587 0.12095,-1.779039 0.12171,-7.469063 10e-4,-9.038048 -0.31388,-4.086413 -0.87017,-7.165416 -1.79816,-9.952419 -0.46875,-1.407799 -0.84219,-2.235386 -1.37142,-3.039159 -2.86958,-4.358275 -10.49336,-7.845666 -21.85226,-9.99603 -9.659458,-1.828637 -28.740612,-2.003052 -40.262364,-0.368023 -7.323011,1.039192 -16.5819,3.845571 -16.5819,5.02599 0,0.382913 10.802354,11.354364 35.274059,35.826233 25.250035,25.2502 35.513785,35.346833 35.931885,35.346833 0.0977,0 0.22829,-0.180144 0.46242,-0.637765 z M 103.94123,72.768392 c -0.02,-0.09019 -0.0487,-2.04996 -0.0636,-4.355027 -0.0216,-3.333732 -0.0506,-4.347581 -0.14193,-4.956349 -0.37217,-2.480147 -0.80916,-3.750934 -2.31847,-6.742092 -2.212088,-4.383959 -3.101815,-5.70211 -4.194193,-6.213807 -0.867093,-0.406169 -2.266841,-0.211552 -4.906615,0.6822 -3.697808,1.251974 -7.125154,3.4365 -9.441702,6.017962 -0.979659,1.091691 -1.377602,1.306596 -2.130162,1.150363 -0.427686,-0.08879 -5.080693,-2.398202 -5.547173,-2.753215 -0.522731,-0.39782 -0.888796,-1.198699 -0.886639,-1.939785 0.0031,-0.986386 0.523583,-2.187288 1.538305,-3.547792 3.126421,-4.191797 10.303419,-15.287645 11.799234,-18.241963 l 0.327782,-0.647392 -0.0046,-0.773913 c -0.0054,-0.923517 -0.15443,-1.679027 -0.558825,-2.839053 -0.375333,-1.076678 -0.454536,-1.873051 -0.210552,-2.117038 0.09989,-0.09989 0.246839,-0.154628 0.415109,-0.154628 0.392397,0 1.284521,0.324067 2.181255,0.792342 1.237187,0.646066 1.567074,0.745954 1.567074,0.474495 0,-0.05824 -0.195329,-0.506492 -0.434061,-0.996129 -0.472265,-0.968579 -0.623441,-1.475666 -0.520589,-1.746178 0.13602,-0.357778 0.439622,-0.450852 0.997031,-0.305665 0.964436,0.251203 2.09369,1.031636 3.632011,2.510084 1.486695,1.42884 2.775083,2.375569 5.32722,3.91452 1.63511,0.98599 2.89345,1.662849 5.39367,2.901263 1.24273,0.615552 2.7023,1.362872 3.24349,1.66071 5.4461,2.997208 9.67197,6.39422 12.31986,9.903444 1.02421,1.357391 2.37307,3.769073 2.65991,4.755754 0.23743,0.816775 0.0802,1.03303 -1.38625,1.90576 -2.86221,1.703462 -5.29969,3.652962 -7.17398,5.737762 -1.92127,2.137055 -3.00514,3.70057 -4.64207,6.69634 -1.42159,2.601687 -2.91934,5.030991 -4.03731,6.548411 -0.42548,0.577523 -2.58513,2.842612 -2.71029,2.842612 -0.0309,0 -0.0727,-0.0738 -0.0928,-0.163996 z"
         id="path4982"
         inkscape:connector-curvature="0"
         sodipodi:nodetypes="cssssccsscssscsssscccscsssscccscscsscccssssscccccccsscccscccccscsccsccccccccscscc" />
    </g>
  </g>
</svg>
